<mxfile host="app.diagrams.net" modified="2020-05-15T14:45:38.258Z" agent="5.0 (Windows NT 10.0; Win64; x64) AppleWebKit/537.36 (KHTML, like Gecko) Chrome/81.0.4044.138 Safari/537.36" etag="FJkscsPWFGWh3iIdG5-C" version="13.1.1" type="github">
  <diagram id="nvE_FC1WQhCISzRiT7xm" name="Pagina-1">
    <mxGraphModel dx="981" dy="514" grid="1" gridSize="10" guides="1" tooltips="1" connect="1" arrows="1" fold="1" page="1" pageScale="1" pageWidth="827" pageHeight="1169" math="0" shadow="0">
      <root>
        <mxCell id="0" />
        <mxCell id="1" parent="0" />
        <mxCell id="9D8aGhp-CKfr7X2Opcz3-1" value="" style="rounded=1;whiteSpace=wrap;html=1;" vertex="1" parent="1">
          <mxGeometry x="262.5" y="50" width="210" height="100" as="geometry" />
        </mxCell>
        <mxCell id="9D8aGhp-CKfr7X2Opcz3-2" value="" style="shape=datastore;whiteSpace=wrap;html=1;" vertex="1" parent="1">
          <mxGeometry x="337.5" y="247" width="60" height="60" as="geometry" />
        </mxCell>
        <mxCell id="9D8aGhp-CKfr7X2Opcz3-3" value="" style="verticalLabelPosition=bottom;html=1;verticalAlign=top;strokeWidth=1;align=center;outlineConnect=0;dashed=0;outlineConnect=0;shape=mxgraph.aws3d.file;aspect=fixed;strokeColor=#292929;" vertex="1" parent="1">
          <mxGeometry x="342.5" y="407" width="30.8" height="70.6" as="geometry" />
        </mxCell>
        <mxCell id="9D8aGhp-CKfr7X2Opcz3-4" value="" style="verticalLabelPosition=bottom;html=1;verticalAlign=top;strokeWidth=1;align=center;outlineConnect=0;dashed=0;outlineConnect=0;shape=mxgraph.aws3d.file;aspect=fixed;strokeColor=#292929;" vertex="1" parent="1">
          <mxGeometry x="352.5" y="417" width="30.8" height="70.6" as="geometry" />
        </mxCell>
        <mxCell id="9D8aGhp-CKfr7X2Opcz3-5" value="" style="verticalLabelPosition=bottom;html=1;verticalAlign=top;strokeWidth=1;align=center;outlineConnect=0;dashed=0;outlineConnect=0;shape=mxgraph.aws3d.file;aspect=fixed;strokeColor=#292929;" vertex="1" parent="1">
          <mxGeometry x="359.1" y="427" width="30.8" height="70.6" as="geometry" />
        </mxCell>
        <mxCell id="9D8aGhp-CKfr7X2Opcz3-6" value="" style="endArrow=classic;html=1;entryX=0.5;entryY=1;entryDx=0;entryDy=0;" edge="1" parent="1" source="9D8aGhp-CKfr7X2Opcz3-4" target="9D8aGhp-CKfr7X2Opcz3-2">
          <mxGeometry width="50" height="50" relative="1" as="geometry">
            <mxPoint x="368.5" y="387" as="sourcePoint" />
            <mxPoint x="368.5" y="327" as="targetPoint" />
          </mxGeometry>
        </mxCell>
        <mxCell id="9D8aGhp-CKfr7X2Opcz3-7" value="ETL" style="text;html=1;align=center;verticalAlign=middle;resizable=0;points=[];autosize=1;" vertex="1" parent="1">
          <mxGeometry x="369.29999999999995" y="356" width="40" height="20" as="geometry" />
        </mxCell>
        <mxCell id="9D8aGhp-CKfr7X2Opcz3-8" value="Data lake&lt;br&gt;(Document store)" style="text;html=1;align=center;verticalAlign=middle;resizable=0;points=[];autosize=1;" vertex="1" parent="1">
          <mxGeometry x="409.29999999999995" y="262" width="110" height="30" as="geometry" />
        </mxCell>
        <mxCell id="9D8aGhp-CKfr7X2Opcz3-9" value="CSV Files" style="text;html=1;align=center;verticalAlign=middle;resizable=0;points=[];autosize=1;" vertex="1" parent="1">
          <mxGeometry x="401.5" y="427" width="70" height="20" as="geometry" />
        </mxCell>
        <mxCell id="9D8aGhp-CKfr7X2Opcz3-10" value="" style="endArrow=classic;html=1;exitX=0.5;exitY=1;exitDx=0;exitDy=0;entryX=0.5;entryY=0;entryDx=0;entryDy=0;" edge="1" parent="1" source="9D8aGhp-CKfr7X2Opcz3-1" target="9D8aGhp-CKfr7X2Opcz3-2">
          <mxGeometry width="50" height="50" relative="1" as="geometry">
            <mxPoint x="318.5" y="157" as="sourcePoint" />
            <mxPoint x="348.5" y="237" as="targetPoint" />
          </mxGeometry>
        </mxCell>
        <mxCell id="9D8aGhp-CKfr7X2Opcz3-11" value="Find TEDx talk" style="outlineConnect=0;fontColor=#232F3E;gradientColor=none;strokeColor=#232F3E;fillColor=#ffffff;dashed=0;verticalLabelPosition=bottom;verticalAlign=top;align=center;html=1;fontSize=12;fontStyle=0;aspect=fixed;shape=mxgraph.aws4.resourceIcon;resIcon=mxgraph.aws4.lambda_function;" vertex="1" parent="1">
          <mxGeometry x="288.5" y="57" width="60" height="60" as="geometry" />
        </mxCell>
        <mxCell id="9D8aGhp-CKfr7X2Opcz3-12" value="Find TEDx by area" style="outlineConnect=0;fontColor=#232F3E;gradientColor=none;strokeColor=#232F3E;fillColor=#ffffff;dashed=0;verticalLabelPosition=bottom;verticalAlign=top;align=center;html=1;fontSize=12;fontStyle=0;aspect=fixed;shape=mxgraph.aws4.resourceIcon;resIcon=mxgraph.aws4.lambda_function;" vertex="1" parent="1">
          <mxGeometry x="385.9" y="57" width="60" height="60" as="geometry" />
        </mxCell>
        <mxCell id="9D8aGhp-CKfr7X2Opcz3-14" value="" style="endArrow=classic;startArrow=classic;html=1;entryX=0;entryY=0.5;entryDx=0;entryDy=0;" edge="1" parent="1" source="9D8aGhp-CKfr7X2Opcz3-15">
          <mxGeometry width="50" height="50" relative="1" as="geometry">
            <mxPoint x="572.5" y="98.5" as="sourcePoint" />
            <mxPoint x="702.5" y="89" as="targetPoint" />
          </mxGeometry>
        </mxCell>
        <mxCell id="9D8aGhp-CKfr7X2Opcz3-15" value="" style="outlineConnect=0;dashed=0;verticalLabelPosition=bottom;verticalAlign=top;align=center;html=1;shape=mxgraph.aws3.api_gateway;fillColor=#D9A741;gradientColor=none;" vertex="1" parent="1">
          <mxGeometry x="497.5" y="55" width="60" height="67" as="geometry" />
        </mxCell>
        <mxCell id="9D8aGhp-CKfr7X2Opcz3-16" value="" style="dashed=0;outlineConnect=0;html=1;align=center;labelPosition=center;verticalLabelPosition=bottom;verticalAlign=top;shape=mxgraph.weblogos.github" vertex="1" parent="1">
          <mxGeometry x="87.5" y="207" width="75" height="75" as="geometry" />
        </mxCell>
        <mxCell id="9D8aGhp-CKfr7X2Opcz3-17" value="Source Code&lt;br&gt;Repository" style="text;html=1;align=center;verticalAlign=middle;resizable=0;points=[];autosize=1;" vertex="1" parent="1">
          <mxGeometry x="80" y="292" width="90" height="30" as="geometry" />
        </mxCell>
        <mxCell id="9D8aGhp-CKfr7X2Opcz3-18" value="" style="endArrow=classic;html=1;dashed=1;" edge="1" parent="1" target="9D8aGhp-CKfr7X2Opcz3-17">
          <mxGeometry width="50" height="50" relative="1" as="geometry">
            <mxPoint x="124.5" y="391" as="sourcePoint" />
            <mxPoint x="124.5" y="341" as="targetPoint" />
          </mxGeometry>
        </mxCell>
        <mxCell id="9D8aGhp-CKfr7X2Opcz3-19" value="Push" style="text;html=1;align=center;verticalAlign=middle;resizable=0;points=[];autosize=1;" vertex="1" parent="1">
          <mxGeometry x="130" y="356" width="40" height="20" as="geometry" />
        </mxCell>
        <mxCell id="9D8aGhp-CKfr7X2Opcz3-20" value="" style="pointerEvents=1;shadow=0;dashed=0;html=1;strokeColor=none;labelPosition=center;verticalLabelPosition=bottom;verticalAlign=top;align=center;fillColor=#505050;shape=mxgraph.mscae.intune.user_group" vertex="1" parent="1">
          <mxGeometry x="714.5" y="187" width="50" height="37" as="geometry" />
        </mxCell>
        <mxCell id="9D8aGhp-CKfr7X2Opcz3-21" value="" style="endArrow=classic;startArrow=classic;html=1;exitX=0.5;exitY=0;exitDx=0;exitDy=0;exitPerimeter=0;" edge="1" parent="1" source="9D8aGhp-CKfr7X2Opcz3-20">
          <mxGeometry width="50" height="50" relative="1" as="geometry">
            <mxPoint x="582.5" y="207" as="sourcePoint" />
            <mxPoint x="739.5" y="125.99999999999989" as="targetPoint" />
          </mxGeometry>
        </mxCell>
        <mxCell id="9D8aGhp-CKfr7X2Opcz3-22" value="" style="endArrow=classic;html=1;dashed=1;entryX=0.5;entryY=1;entryDx=0;entryDy=0;" edge="1" parent="1" source="9D8aGhp-CKfr7X2Opcz3-16" target="9D8aGhp-CKfr7X2Opcz3-24">
          <mxGeometry width="50" height="50" relative="1" as="geometry">
            <mxPoint x="130.5" y="187" as="sourcePoint" />
            <mxPoint x="130.41071428571433" y="107" as="targetPoint" />
          </mxGeometry>
        </mxCell>
        <mxCell id="9D8aGhp-CKfr7X2Opcz3-23" style="edgeStyle=orthogonalEdgeStyle;rounded=0;orthogonalLoop=1;jettySize=auto;html=1;dashed=1;" edge="1" parent="1" source="9D8aGhp-CKfr7X2Opcz3-24">
          <mxGeometry relative="1" as="geometry">
            <mxPoint x="237.5" y="97" as="targetPoint" />
          </mxGeometry>
        </mxCell>
        <mxCell id="9D8aGhp-CKfr7X2Opcz3-24" value="CI/CD" style="rounded=0;whiteSpace=wrap;html=1;" vertex="1" parent="1">
          <mxGeometry x="92.5" y="77" width="65" height="40" as="geometry" />
        </mxCell>
        <mxCell id="9D8aGhp-CKfr7X2Opcz3-25" value="" style="verticalLabelPosition=bottom;verticalAlign=top;html=1;shadow=0;dashed=0;strokeWidth=1;shape=mxgraph.android.phone2;strokeColor=#666666;fillColor=#f5f5f5;fontColor=#333333;" vertex="1" parent="1">
          <mxGeometry x="710" y="30" width="50" height="90" as="geometry" />
        </mxCell>
      </root>
    </mxGraphModel>
  </diagram>
</mxfile>
